<!-- Generator: Adobe Illustrator 24.1.0, SVG Export Plug-In  -->
<svg version="1.1" xmlns="http://www.w3.org/2000/svg" xmlns:xlink="http://www.w3.org/1999/xlink" x="0px" y="0px" width="1593px"
	 height="1782.1px" viewBox="0 0 1593 1782.1" style="enable-background:new 0 0 1593 1782.1;" xml:space="preserve">
<style type="text/css">
	.st0{fill:#00CE93;}
</style>
<defs>
</defs>
<g>
	<path class="st0" d="M845.1,844.7h-12.6c-3.7,1-7.7,1.5-11.7,1.5H47.5C21.4,846.1,0,824.8,0,798.6l0,0c0-26.1,21.4-47.5,47.5-47.5
		H175h0.2h97.2h57.1h42.8h99.5h349h21.1c-5.6-98.8-17.9-194.7-36.9-281.3c-63.6,10.9-124.4,35.9-177.5,73.8v0.1
		c-24.3,17.4-46.9,37.3-67.3,59.5c-0.9,1-1.8,2-2.8,3c-14,15.6-26.8,32.2-38.5,49.8h-28.3h-81.4h-228c-26.1,0-47.5-21.4-47.5-47.5
		l0,0c0-26.1,21.4-47.5,47.5-47.5H471c25.2-30.8,54-58.8,85.9-83.4v-0.1c65.5-50.4,142.3-84.8,224-100c-10-32.7-21.2-63.4-33.5-91.7
		c-54.4,11.5-107.5,30.3-157.7,56.4h0.1c-62,32.3-117.2,74.3-164.2,123.9h-39.6h-71.2h-13l1.2-1.5c-20.4-5.3-35.6-23.9-35.6-46l0,0
		c0-26.1,21.4-47.5,47.5-47.5h71.2h0.3c21-19.7,43-38.1,65.9-54.9c74.8-55,159.3-94.6,248.1-117.1c-35.6-52.2-77.8-88.1-126.8-101.2
		c-38.9-10.4-77.8,45.7-109.3,124.4c30.3-225.9,216-338.8,361.1-47.7c178.3,357.8,187.9,1088.1,2,1438.8
		c-155.7,293.7-356.3,161.2-366.8-72.6c32.3,84.4,72.6,144.6,113,133.7c44.1-11.8,83-43.6,116.5-90.3
		c-58.6-15.9-116.1-39.5-171.2-71.3c-48.8-28.2-93.1-61.3-132.5-98.3h-71.6c-26.1,0-47.5-21.4-47.5-47.5l0,0c0-22,15.2-40.7,35.6-46
		l-1.1-1.5h13h86.9h10.6h13.3c40.8,43.1,88,80.6,140.8,111c54.6,31.5,112.7,53.9,172.4,67.4c12.8-28,24.3-58.5,34.8-91.2
		c-55.4-11.1-109-31.3-158.8-60c-55.5-32.1-104.1-73.5-143.9-122.2H181.2c-26.1,0-47.5-21.4-47.5-47.5l0,0
		c0-26.1,21.4-47.5,47.5-47.5h228h80h29.7c35.5,53.8,83.8,100.5,143.5,134.9c43.6,25.2,89.8,41.8,136.6,50.5
		c20.1-86,33.8-181.6,40.7-280.4h-18.9h-1.7H625H471.9h-97.1H47.5c-26.1,0-47.5-21.4-47.5-47.5l0,0c0-26.1,21.4-47.5,47.5-47.5
		h315.3h458h23.6C845.3,908.1,845.5,876.4,845.1,844.7L845.1,844.7z M1533.3,1180.2c-22.8,52-51.6,100.8-85.6,145.5h-0.4
		c-42.2,55.8-91.5,103.9-145.8,143.9c-122,89.7-269.5,138.2-419.8,139.4c14.5-30.2,27.8-62.7,39.9-97.1
		c114.9-8.2,227.6-48.2,323.6-118.8c45.6-33.6,86.3-73.2,121.1-117.9h-99.2l-31.1-0.3c-78.2,73.5-177.5,121.3-284.2,136.8
		c8.4-32.5,15.9-66.2,22.4-100.8c84.2-19.6,162.4-64.5,222.2-131.4l71.2,0.7h265.1L1533.3,1180.2L1533.3,1180.2z M878.1,176.9
		c121.3,0.1,244.2,31,356.8,96c185.1,106.9,304.5,284,343.8,478.3c18.7,92.5,19.3,188.9,0.2,283.5h-296.8h-275.6
		c1.6-31.5,2.6-63.2,3-95h486.8c4.2-56.7,0.6-113.8-10.7-169.7c-35.5-175.2-143.3-325.4-298.2-414.8
		c-84.3-48.6-177.2-75.7-270.9-81.6C904.8,239.4,892,207,878.1,176.9L878.1,176.9z M946.4,373.3c67.4,9,132.8,31.2,192.6,65.7
		c99.8,57.6,177,145.5,221.3,251.1c16.7,39.8,33.8,115.7,33.2,156.1h-384.6c-0.8-31.8-2.3-63.5-4.3-95H1282
		c-32.7-93.6-97.9-176.4-190.5-229.9c-39.2-22.6-80.4-38.3-122.3-47.6C962.4,439.2,954.8,405.7,946.4,373.3L946.4,373.3z"/>
</g>
</svg>
